<?xml version="1.0" encoding="UTF-8"?>
<svg xmlns="http://www.w3.org/2000/svg" xmlns:xlink="http://www.w3.org/1999/xlink" viewBox="0 0 25 25" width="25px" height="25px">
<g id="surface147592606">
<path style=" stroke:none;fill-rule:nonzero;fill:rgb(100%,100%,100%);fill-opacity:1;" d="M 12.5 1 C 6.15625 1 1 6.15625 1 12.5 C 1 18.84375 6.15625 24 12.5 24 C 18.84375 24 24 18.84375 24 12.5 C 24 6.15625 18.84375 1 12.5 1 Z M 12.5 2 C 18.304688 2 23 6.695312 23 12.5 C 23 12.535156 22.996094 12.570312 22.996094 12.605469 C 22.675781 12.578125 22.308594 12.550781 21.839844 12.53125 C 21.171875 12.507812 20.335938 12.515625 19.386719 12.5625 C 19.421875 12.316406 19.445312 12.070312 19.449219 11.8125 C 19.496094 10.878906 19.179688 10 18.671875 9.226562 C 18.792969 8.800781 18.9375 8.257812 18.976562 7.640625 C 19.015625 6.941406 18.957031 6.160156 18.390625 5.636719 L 18.246094 5.5 L 18.050781 5.5 C 16.707031 5.5 15.789062 6.0625 15.230469 6.507812 C 14.417969 6.191406 13.507812 6 12.5 6 C 11.488281 6 10.566406 6.195312 9.722656 6.507812 C 9.164062 6.0625 8.242188 5.5 6.902344 5.5 L 6.703125 5.5 L 6.558594 5.632812 C 6.011719 6.144531 5.960938 6.902344 5.996094 7.601562 C 6.023438 8.214844 6.160156 8.777344 6.28125 9.222656 C 5.761719 10.011719 5.449219 10.910156 5.449219 11.800781 C 5.449219 12.054688 5.472656 12.304688 5.507812 12.550781 C 4.605469 12.507812 3.800781 12.5 3.160156 12.523438 C 2.691406 12.539062 2.324219 12.566406 2.003906 12.597656 C 2.003906 12.566406 2 12.53125 2 12.5 C 2 6.695312 6.695312 2 12.5 2 Z M 7.199219 6.566406 C 8.207031 6.660156 8.964844 7.113281 9.316406 7.421875 L 9.550781 7.628906 L 9.839844 7.511719 C 10.632812 7.1875 11.511719 7 12.5 7 C 13.488281 7 14.367188 7.1875 15.097656 7.507812 L 15.390625 7.636719 L 15.632812 7.421875 C 15.984375 7.113281 16.742188 6.660156 17.753906 6.566406 C 17.886719 6.789062 18.003906 7.105469 17.976562 7.582031 C 17.941406 8.15625 17.789062 8.78125 17.671875 9.148438 L 17.597656 9.390625 L 17.746094 9.59375 C 18.242188 10.269531 18.492188 11 18.449219 11.773438 L 18.449219 11.800781 C 18.449219 13.046875 18 14.046875 17.042969 14.785156 C 16.085938 15.527344 14.578125 16 12.449219 16 C 10.324219 16 8.8125 15.527344 7.855469 14.785156 C 6.898438 14.046875 6.449219 13.046875 6.449219 11.800781 C 6.449219 11.066406 6.714844 10.261719 7.203125 9.59375 L 7.347656 9.394531 L 7.277344 9.160156 C 7.164062 8.765625 7.019531 8.128906 6.992188 7.550781 C 6.96875 7.070312 7.082031 6.769531 7.199219 6.566406 Z M 4.441406 13.011719 C 4.796875 13.015625 5.199219 13.035156 5.605469 13.054688 C 5.644531 13.210938 5.6875 13.363281 5.742188 13.511719 C 4.089844 13.546875 2.851562 13.714844 2.089844 13.855469 C 2.058594 13.605469 2.03125 13.355469 2.015625 13.097656 C 2.582031 13.046875 3.375 12.996094 4.441406 13.011719 Z M 20.558594 13.019531 C 21.625 13.003906 22.417969 13.054688 22.980469 13.105469 C 22.96875 13.359375 22.941406 13.609375 22.910156 13.855469 C 22.121094 13.710938 20.851562 13.542969 19.152344 13.515625 C 19.207031 13.371094 19.25 13.21875 19.289062 13.066406 C 19.734375 13.042969 20.171875 13.023438 20.558594 13.019531 Z M 5.957031 14.011719 C 6.253906 14.609375 6.679688 15.140625 7.242188 15.578125 C 8.015625 16.171875 9.015625 16.589844 10.238281 16.8125 C 10.078125 16.976562 9.933594 17.15625 9.804688 17.347656 L 9.773438 17.320312 C 9.777344 17.316406 9.523438 17.441406 9.148438 17.476562 C 8.773438 17.511719 8.3125 17.5 7.902344 17.5 C 7.289062 17.5 7.019531 17.210938 6.585938 16.683594 C 6.347656 16.363281 6.058594 16.101562 5.773438 15.902344 C 5.484375 15.699219 5.238281 15.558594 4.933594 15.507812 L 4.890625 15.5 L 4.847656 15.5 C 4.617188 15.5 4.390625 15.515625 4.179688 15.757812 C 4.074219 15.878906 4 16.101562 4.050781 16.289062 C 4.097656 16.480469 4.214844 16.59375 4.324219 16.667969 C 5.003906 17.121094 5.125 18.023438 5.554688 18.824219 C 5.953125 19.621094 6.816406 20 7.699219 20 L 9 20 L 9 22.402344 C 5.484375 21.160156 2.832031 18.101562 2.167969 14.351562 C 2.929688 14.207031 4.214844 14.035156 5.957031 14.011719 Z M 18.941406 14.011719 C 20.722656 14.027344 22.039062 14.203125 22.835938 14.347656 C 22.167969 18.101562 19.515625 21.160156 16 22.402344 L 16 19.800781 C 16 19.007812 15.738281 18.132812 15.285156 17.40625 C 15.148438 17.183594 14.988281 16.976562 14.808594 16.785156 C 15.964844 16.558594 16.917969 16.148438 17.65625 15.578125 C 18.21875 15.140625 18.644531 14.609375 18.941406 14.011719 Z M 11.847656 17.050781 L 13.25 17.050781 C 13.65625 17.050781 14.089844 17.375 14.4375 17.933594 C 14.785156 18.492188 15 19.242188 15 19.800781 L 15 22.699219 C 14.199219 22.894531 13.363281 23 12.5 23 C 11.636719 23 10.800781 22.894531 10 22.699219 L 10 19.800781 C 10 19.253906 10.234375 18.503906 10.605469 17.945312 C 10.976562 17.382812 11.441406 17.050781 11.847656 17.050781 Z M 6.152344 17.640625 C 6.585938 18.089844 7.109375 18.5 7.898438 18.5 C 8.289062 18.5 8.777344 18.515625 9.238281 18.472656 C 9.238281 18.472656 9.242188 18.472656 9.242188 18.472656 C 9.183594 18.648438 9.136719 18.824219 9.097656 19 L 7.699219 19 C 7.082031 19 6.648438 18.777344 6.449219 18.375 L 6.445312 18.371094 L 6.441406 18.363281 C 6.359375 18.210938 6.25 17.90625 6.15625 17.640625 Z M 6.152344 17.640625 "/>
</g>
</svg>
